<mxfile host="Electron" modified="2023-10-15T23:31:22.262Z" agent="Mozilla/5.0 (Windows NT 10.0; Win64; x64) AppleWebKit/537.36 (KHTML, like Gecko) draw.io/21.5.1 Chrome/112.0.5615.204 Electron/24.6.0 Safari/537.36" etag="BU5F9hgRJ2Zt0lHqhDUP" version="21.5.1" type="device">
  <diagram name="Page-1" id="YKShR_g68YPK9_v745e2">
    <mxGraphModel dx="1218" dy="1191" grid="1" gridSize="10" guides="1" tooltips="1" connect="1" arrows="1" fold="1" page="1" pageScale="1" pageWidth="827" pageHeight="1169" math="0" shadow="0">
      <root>
        <mxCell id="0" />
        <mxCell id="1" parent="0" />
        <mxCell id="MspGc8LwtP9q411Xpu6a-10" value="Jenkins" style="rounded=0;whiteSpace=wrap;html=1;dashed=1;strokeWidth=2;strokeColor=#FF0000;fillColor=none;verticalAlign=top;fontStyle=1;fontSize=16;" vertex="1" parent="1">
          <mxGeometry x="530" y="445" width="160" height="355" as="geometry" />
        </mxCell>
        <mxCell id="MspGc8LwtP9q411Xpu6a-9" value="Github" style="rounded=0;whiteSpace=wrap;html=1;dashed=1;strokeWidth=2;strokeColor=#FF0000;fillColor=none;verticalAlign=top;fontStyle=1;fontSize=16;" vertex="1" parent="1">
          <mxGeometry x="310" y="445" width="160" height="355" as="geometry" />
        </mxCell>
        <mxCell id="MspGc8LwtP9q411Xpu6a-7" style="edgeStyle=orthogonalEdgeStyle;rounded=0;orthogonalLoop=1;jettySize=auto;html=1;entryX=0;entryY=0.5;entryDx=0;entryDy=0;" edge="1" parent="1" source="MspGc8LwtP9q411Xpu6a-1" target="MspGc8LwtP9q411Xpu6a-3">
          <mxGeometry relative="1" as="geometry" />
        </mxCell>
        <mxCell id="MspGc8LwtP9q411Xpu6a-1" value="app repository" style="rounded=0;whiteSpace=wrap;html=1;fillColor=#e1d5e7;strokeColor=#9673a6;" vertex="1" parent="1">
          <mxGeometry x="330" y="490" width="120" height="60" as="geometry" />
        </mxCell>
        <mxCell id="MspGc8LwtP9q411Xpu6a-8" style="edgeStyle=orthogonalEdgeStyle;rounded=0;orthogonalLoop=1;jettySize=auto;html=1;entryX=0;entryY=0.5;entryDx=0;entryDy=0;" edge="1" parent="1" source="MspGc8LwtP9q411Xpu6a-2" target="MspGc8LwtP9q411Xpu6a-5">
          <mxGeometry relative="1" as="geometry" />
        </mxCell>
        <mxCell id="MspGc8LwtP9q411Xpu6a-2" value="terraform files" style="rounded=0;whiteSpace=wrap;html=1;fillColor=#e1d5e7;strokeColor=#9673a6;" vertex="1" parent="1">
          <mxGeometry x="330" y="640" width="120" height="60" as="geometry" />
        </mxCell>
        <mxCell id="MspGc8LwtP9q411Xpu6a-3" value="1. git clone app repo" style="rounded=0;whiteSpace=wrap;html=1;fillColor=#dae8fc;strokeColor=#6c8ebf;" vertex="1" parent="1">
          <mxGeometry x="550" y="490" width="120" height="60" as="geometry" />
        </mxCell>
        <mxCell id="MspGc8LwtP9q411Xpu6a-15" style="edgeStyle=orthogonalEdgeStyle;rounded=0;orthogonalLoop=1;jettySize=auto;html=1;entryX=0;entryY=0.5;entryDx=0;entryDy=0;" edge="1" parent="1" source="MspGc8LwtP9q411Xpu6a-4" target="MspGc8LwtP9q411Xpu6a-12">
          <mxGeometry relative="1" as="geometry" />
        </mxCell>
        <mxCell id="MspGc8LwtP9q411Xpu6a-4" value="2. packer build" style="rounded=0;whiteSpace=wrap;html=1;fillColor=#dae8fc;strokeColor=#6c8ebf;" vertex="1" parent="1">
          <mxGeometry x="550" y="565" width="120" height="60" as="geometry" />
        </mxCell>
        <mxCell id="MspGc8LwtP9q411Xpu6a-5" value="3. git clone terraform repo" style="rounded=0;whiteSpace=wrap;html=1;fillColor=#dae8fc;strokeColor=#6c8ebf;" vertex="1" parent="1">
          <mxGeometry x="550" y="640" width="120" height="60" as="geometry" />
        </mxCell>
        <mxCell id="MspGc8LwtP9q411Xpu6a-17" style="edgeStyle=orthogonalEdgeStyle;rounded=0;orthogonalLoop=1;jettySize=auto;html=1;entryX=0;entryY=0.5;entryDx=0;entryDy=0;" edge="1" parent="1" source="MspGc8LwtP9q411Xpu6a-6" target="MspGc8LwtP9q411Xpu6a-13">
          <mxGeometry relative="1" as="geometry">
            <Array as="points">
              <mxPoint x="720" y="730" />
              <mxPoint x="720" y="670" />
            </Array>
          </mxGeometry>
        </mxCell>
        <mxCell id="MspGc8LwtP9q411Xpu6a-18" style="edgeStyle=orthogonalEdgeStyle;rounded=0;orthogonalLoop=1;jettySize=auto;html=1;entryX=0;entryY=0.5;entryDx=0;entryDy=0;startArrow=classic;startFill=1;" edge="1" parent="1" source="MspGc8LwtP9q411Xpu6a-6" target="MspGc8LwtP9q411Xpu6a-14">
          <mxGeometry relative="1" as="geometry" />
        </mxCell>
        <mxCell id="MspGc8LwtP9q411Xpu6a-6" value="4. terraform apply aws_instance.app-demo" style="rounded=0;whiteSpace=wrap;html=1;fillColor=#dae8fc;strokeColor=#6c8ebf;" vertex="1" parent="1">
          <mxGeometry x="550" y="715" width="120" height="60" as="geometry" />
        </mxCell>
        <mxCell id="MspGc8LwtP9q411Xpu6a-11" value="AWS" style="rounded=0;whiteSpace=wrap;html=1;dashed=1;strokeWidth=2;strokeColor=#FF0000;fillColor=none;verticalAlign=top;fontStyle=1;fontSize=16;" vertex="1" parent="1">
          <mxGeometry x="750" y="445" width="160" height="355" as="geometry" />
        </mxCell>
        <mxCell id="MspGc8LwtP9q411Xpu6a-12" value="AMI containing node + app" style="rounded=0;whiteSpace=wrap;html=1;fillColor=#d5e8d4;strokeColor=#82b366;" vertex="1" parent="1">
          <mxGeometry x="770" y="565" width="120" height="60" as="geometry" />
        </mxCell>
        <mxCell id="MspGc8LwtP9q411Xpu6a-13" value="app instance launched from AMI created by Packer" style="rounded=0;whiteSpace=wrap;html=1;fillColor=#d5e8d4;strokeColor=#82b366;" vertex="1" parent="1">
          <mxGeometry x="770" y="640" width="120" height="60" as="geometry" />
        </mxCell>
        <mxCell id="MspGc8LwtP9q411Xpu6a-14" value="S3 bucket with terraform state" style="rounded=0;whiteSpace=wrap;html=1;fillColor=#f8cecc;strokeColor=#b85450;" vertex="1" parent="1">
          <mxGeometry x="770" y="715" width="120" height="60" as="geometry" />
        </mxCell>
      </root>
    </mxGraphModel>
  </diagram>
</mxfile>
